<?xml version="1.0" encoding="utf-8" ?>
<svg xmlns="http://www.w3.org/2000/svg" xmlns:xlink="http://www.w3.org/1999/xlink" width="400" height="400">
	<path d="M85.2194 24.6302C89.975 27.004 100.531 37.4653 105.023 41.5491C100.082 46.4574 95.529 51.4591 91.3307 57.0264C83.207 67.7994 76.2147 81.2797 73.5472 94.5903C70.3055 110.766 72.5734 131.394 74.8635 147.723C84.1669 147.576 92.9591 147.621 101.716 151.228C118.331 158.071 131.433 173.961 137 190.852C139.327 197.911 140.326 205.347 142.325 212.509C144.896 221.719 148.142 230.543 151.831 239.359C149.265 239.538 146.637 240.491 144.081 240.923C145.38 244.668 146.248 248.665 147.402 252.468C142.961 252.551 138.518 253.737 134.099 253.244C136.087 254.99 137.817 257.073 139.736 258.904C144.149 263.118 149.1 266.731 154.459 269.649C158.821 268.42 163.124 267.013 167.461 265.706C173.603 274.147 180.777 281.409 188.963 287.864C222.924 314.648 266.836 318.232 307.789 308.443C321.463 305.174 352.216 293.891 364.97 297.527C367.284 298.187 369.35 299.514 370.499 301.691C371.557 303.695 371.773 306.185 371.096 308.34C368.513 316.553 351.069 326.075 343.609 329.936C343.576 329.963 343.545 329.994 343.509 330.018C339.832 332.442 335.52 334.303 331.537 336.19C324.014 339.753 316.487 343.128 308.764 346.237C296.147 351.317 283.483 356.445 270.193 359.51C243.685 365.624 214.218 361.891 188.105 355.365C132.388 341.116 82.2185 310.499 44.0701 267.463C37.6322 260.219 30.7464 253.495 25.7354 245.112C16.9995 230.398 14.466 212.817 18.6922 196.235C21.7419 184.253 30.3758 168.233 41.3078 161.74C41.0429 151.337 41.0587 140.929 41.3552 130.526C42.4065 99.8489 49.5004 68.1899 68.1204 43.2205C73.1609 36.4612 79.0659 30.3749 85.2194 24.6302Z"/>
	<path fill="#C0202E" d="M69.3095 155.167C84.234 153.18 97.5001 153.84 109.927 163.331C120.569 171.587 128.31 183.015 132.028 195.961C134.449 204.533 135.804 213.321 138.427 221.88C139.741 226.167 141.174 231.018 143.269 234.985C141.497 235.222 137.641 235.334 136.277 236.476C137.283 239.912 138.048 243.725 139.441 247.007C116.725 249.408 99.8966 246.931 78.7755 238.325C78.8759 239.877 79.6234 241.571 80.2437 242.983C86.2963 256.758 99.4143 267.82 113.253 273.236C128.939 279.375 149.365 279.639 164.925 272.862C170.506 279.178 176.155 285.361 182.596 290.824C217.614 320.527 264.445 325.121 307.864 314.881C323.99 311.078 340.132 304.673 356.71 303.357C359.108 303.167 362.978 302.769 364.94 304.447C365.257 305.135 365.354 305.439 365.189 306.193C364.171 310.845 351.85 318.181 347.805 320.561C333.448 329.012 317.712 336.002 302.198 342.025C291.357 346.233 280.265 350.852 268.928 353.496C263.753 354.703 258.54 355.236 253.253 355.641C230.779 357.36 208.414 354.166 186.692 348.515C133.982 334.357 86.4954 305.248 49.9619 264.701C43.2634 257.362 35.788 249.975 30.7555 241.368C18.5167 220.434 21.2587 192.506 37.1673 174.233C38.7322 172.435 47.2421 165.439 47.5673 164.191C50.6175 163.467 53.8079 160.972 56.6165 159.51C60.5739 157.449 64.9464 156.063 69.3095 155.167Z"/>
	<path fill="#FEFEFE" d="M78.7755 238.325C78.2787 237.3 78.1515 236.016 78.1727 234.888C78.1963 233.624 78.3938 231.956 79.391 231.077C79.9512 230.583 80.5859 230.56 81.2975 230.628C85.9307 231.073 95.84 235.546 101.353 236.911C109.576 238.947 118.729 238.304 127.068 237.388C130.057 237.06 133.267 236.24 136.277 236.476C137.283 239.912 138.048 243.725 139.441 247.007C116.725 249.408 99.8966 246.931 78.7755 238.325Z"/>
	<path fill="#F09DA2" d="M53.1504 174.787C54.8249 174.655 56.8004 174.994 58.1685 176.004C60.0141 177.366 60.8862 179.653 61.1203 181.867C62.0279 190.45 56.5424 204.836 55.2726 214.055C54.4442 220.07 54.7464 226.36 55.7953 232.325C60.8754 261.218 82.7594 280.793 105.075 297.624C116.504 306.386 128.501 314.383 140.985 321.563C145.953 324.45 150.998 327.202 156.114 329.816C159.4 331.472 163.329 332.93 166.312 335.028L166.235 335.246C164.118 335.347 157.4 332.474 154.958 331.633C141.339 326.661 127.918 320.589 115.565 312.948C89.9628 297.111 63.5824 274.833 45.0637 251.074C39.2882 243.665 33.8224 236.479 31.6501 227.141C28.5459 213.795 31.2367 197.286 38.5406 185.654C42.1812 179.856 46.4568 176.311 53.1504 174.787Z"/>
	<path d="M117.1 189.942C117.544 189.942 117.984 189.958 118.417 190.069C120.132 190.512 121.473 191.795 122.378 193.273C125.058 197.655 125.584 204.252 124.357 209.163C123.726 211.686 122.634 213.913 120.357 215.304C120.034 215.362 119.703 215.421 119.374 215.425C118.028 215.44 116.652 214.389 115.808 213.435C112.858 210.098 112.142 203.97 112.473 199.722C112.783 195.74 114.041 192.554 117.1 189.942Z"/>
	<path d="M93.4548 191.716C93.6702 191.706 93.8858 191.694 94.1015 191.694C95.7561 191.701 97.1463 192.505 98.2653 193.689C101.229 196.824 101.97 202.741 101.711 206.845C101.463 210.786 100.21 214.25 97.2274 216.9C96.9079 216.977 96.6078 217.046 96.2766 217.041C95.0086 217.024 93.7655 216.244 92.9152 215.351C89.889 212.172 89.0837 206.476 89.2295 202.289C89.3726 198.179 90.4116 194.579 93.4548 191.716Z"/>
	<path fill="#91CA41" d="M85.6591 32.7475C88.8679 35.863 92.5244 39.1745 96.2585 41.6219C95.5113 42.3867 94.7745 43.1617 94.0482 43.9464C88.717 49.7283 84.0725 56.2495 80.0084 62.9711C66.6469 85.0701 64.6809 104.723 66.6028 129.98C67.2418 138.378 68.9825 146.76 69.3095 155.167C64.9464 156.063 60.5739 157.449 56.6165 159.51C53.8079 160.972 50.6175 163.467 47.5673 164.191C47.4239 162.135 47.4957 160.017 47.4771 157.953C47.3889 148.151 47.236 138.264 47.7151 128.472C49.111 99.9463 55.5546 70.9791 72.7192 47.5842C76.6265 42.2588 81.0372 37.4534 85.6591 32.7475Z"/>
</svg>
