<svg xmlns="http://www.w3.org/2000/svg" xml:space="preserve" width="800" height="800" viewBox="0 0 512 512"><path d="M494.345 512H17.655C7.901 512 0 504.099 0 494.345V105.931h512v388.414c0 9.754-7.901 17.655-17.655 17.655" style="fill:#e8edee"/><path d="M512 105.931H0V17.655C0 7.901 7.901 0 17.655 0h476.69C504.099 0 512 7.901 512 17.655z" style="fill:#546a79"/><path d="M88.276 52.966c0-14.627-11.855-26.483-26.483-26.483S35.31 38.338 35.31 52.966s11.855 26.483 26.483 26.483 26.483-11.856 26.483-26.483" style="fill:#ed7161"/><path d="M176.552 52.966c0-14.627-11.855-26.483-26.483-26.483s-26.483 11.855-26.483 26.483 11.855 26.483 26.483 26.483 26.483-11.856 26.483-26.483" style="fill:#ecba16"/><path d="M264.828 52.966c0-14.627-11.855-26.483-26.483-26.483-14.627 0-26.483 11.855-26.483 26.483s11.855 26.483 26.483 26.483c14.627-.001 26.483-11.856 26.483-26.483" style="fill:#42b05c"/><path d="M185.5 388.414c-2.26 0-4.52-.865-6.241-2.586l-70.144-70.144a8.774 8.774 0 0 1-2.454-3.337c-1.359-3.302-.671-7.097 1.854-9.622l70.682-70.682c3.452-3.443 9.039-3.443 12.482 0 3.452 3.452 3.452 9.039 0 12.482l-64.38 64.38 64.441 64.441a8.817 8.817 0 0 1 0 12.482 8.8 8.8 0 0 1-6.24 2.586m141.061.06a8.8 8.8 0 0 1-6.241-2.587 8.817 8.817 0 0 1 0-12.482l64.38-64.38-64.441-64.441c-3.443-3.443-3.443-9.031 0-12.482 3.452-3.443 9.039-3.443 12.482 0l70.144 70.144a8.75 8.75 0 0 1 2.454 3.337c1.368 3.302.671 7.097-1.854 9.622l-70.682 70.682a8.806 8.806 0 0 1-6.242 2.587m-88.207-.06c-.715 0-1.43-.079-2.154-.265-4.723-1.183-7.601-5.976-6.418-10.708l35.31-141.241c1.183-4.723 5.994-7.592 10.708-6.418 4.723 1.183 7.601 5.976 6.418 10.708l-35.31 141.241a8.83 8.83 0 0 1-8.554 6.683" style="fill:#61b972"/></svg>