<?xml version="1.0" encoding="UTF-8" standalone="no"?>
<!DOCTYPE svg PUBLIC "-//W3C//DTD SVG 1.1//EN" "http://www.w3.org/Graphics/SVG/1.1/DTD/svg11.dtd">
<svg xmlns="http://www.w3.org/2000/svg" version="1.1" viewBox="0.00 0.00 876.00 306.00">
<path fill="#02303a" d="
  M 211.34 113.04
  C 215.09 109.62 209.86 104.03 205.71 107.79
  Q 193.17 119.14 176.40 128.62
  Q 167.21 133.81 160.08 128.71
  Q 157.26 126.70 154.59 121.91
  Q 147.45 109.11 140.34 97.20
  Q 137.69 92.76 137.50 89.66
  Q 136.95 80.44 144.28 76.49
  C 149.91 73.47 156.75 70.84 163.07 68.71
  Q 187.01 60.62 210.75 62.61
  C 236.50 64.77 258.24 76.54 280.81 87.83
  C 287.44 91.15 295.19 94.49 302.40 94.92
  Q 315.90 95.73 324.15 83.05
  C 327.68 77.62 328.36 69.23 325.89 63.08
  C 319.93 48.28 303.02 43.06 289.78 52.49
  C 288.18 53.63 285.98 53.46 284.55 52.11
  C 281.83 49.54 274.97 44.60 279.94 40.41
  Q 289.26 32.55 299.45 30.71
  C 318.17 27.32 335.53 35.64 344.56 52.21
  Q 355.04 71.44 348.60 93.34
  C 341.97 115.91 323.02 134.73 304.14 148.79
  C 286.35 162.04 279.24 186.25 277.77 207.76
  Q 277.43 212.71 277.19 217.39
  A 3.50 3.50 0.0 0 1 273.72 220.71
  Q 264.49 220.79 255.42 220.73
  Q 252.36 220.71 251.79 217.62
  Q 248.59 199.91 232.03 194.95
  C 224.97 192.83 216.72 194.34 210.68 198.37
  Q 200.46 205.20 198.65 217.76
  C 198.38 219.68 196.61 220.76 194.77 220.76
  Q 185.00 220.75 176.42 220.74
  C 172.47 220.74 172.73 215.15 171.86 212.60
  Q 167.85 200.89 156.51 196.05
  C 149.62 193.11 141.42 193.34 134.80 196.74
  Q 122.09 203.24 119.87 217.74
  C 119.61 219.47 118.00 220.77 116.28 220.76
  Q 106.17 220.73 97.60 220.75
  Q 94.38 220.76 93.75 217.56
  C 85.25 174.00 95.92 127.59 133.03 100.62
  Q 133.37 100.38 133.58 100.74
  Q 141.14 113.77 149.28 127.83
  C 153.75 135.55 162.46 140.22 171.19 138.75
  Q 175.34 138.06 180.95 134.91
  Q 197.64 125.55 211.34 113.04
  Z
  M 258.00 110.90
  L 268.31 116.04
  A 1.96 1.96 0.0 0 0 270.93 115.16
  L 271.58 113.88
  A 7.76 7.63 -63.5 0 0 268.21 103.53
  L 268.05 103.45
  A 7.76 7.63 -63.5 0 0 257.76 106.99
  L 257.12 108.28
  A 1.96 1.96 0.0 0 0 258.00 110.90
  Z"
/>
<path fill="#02303a" d="
  M 650.75 151.95
  L 650.75 115.00
  Q 650.75 114.50 651.25 114.50
  L 668.13 114.50
  Q 668.75 114.50 668.75 115.13
  L 668.75 220.54
  Q 668.75 220.98 668.31 220.98
  Q 662.97 221.03 657.69 220.98
  C 652.63 220.92 652.86 215.22 651.98 211.66
  Q 651.82 211.00 651.35 211.48
  C 643.27 219.81 633.87 223.81 622.30 221.33
  C 603.65 217.32 599.73 194.01 601.31 178.39
  C 603.33 158.43 617.07 142.92 638.64 146.48
  Q 644.49 147.44 650.13 152.24
  Q 650.75 152.77 650.75 151.95
  Z
  M 650.44 165.88
  C 645.91 160.28 638.71 158.53 631.86 160.37
  C 618.22 164.05 618.42 184.55 620.52 195.08
  C 621.89 201.99 625.93 207.38 633.51 207.75
  Q 643.47 208.22 650.39 199.50
  Q 650.75 199.04 650.75 198.46
  L 650.75 166.76
  Q 650.75 166.26 650.44 165.88
  Z"
/>
<rect fill="#02303a" x="686.25" y="114.50" width="18.00" height="106.50" rx="0.41"/>
<path fill="#02303a" d="
  M 446.75 183.50
  L 434.00 183.50
  A 3.25 3.25 0.0 0 1 430.75 180.25
  L 430.75 169.25
  Q 430.75 168.75 431.25 168.75
  L 464.75 168.75
  Q 465.25 168.75 465.25 169.25
  L 465.25 210.47
  A 0.97 0.97 0.0 0 1 464.83 211.27
  Q 451.59 220.72 435.16 221.87
  C 425.56 222.53 416.02 221.71 406.99 218.43
  C 389.54 212.11 377.80 198.45 374.45 179.89
  Q 372.15 167.17 375.25 154.27
  C 380.63 131.91 398.29 118.44 420.73 116.41
  C 436.83 114.94 452.58 118.29 464.78 129.25
  Q 465.24 129.67 464.92 130.20
  Q 461.60 135.68 459.26 138.98
  Q 456.74 142.54 452.45 140.52
  C 449.23 139.00 446.32 136.82 442.89 135.54
  Q 435.04 132.61 426.69 132.70
  C 400.35 132.99 389.95 156.22 394.47 179.35
  C 399.38 204.47 425.70 212.53 446.98 202.32
  Q 447.50 202.07 447.50 201.49
  L 447.50 184.25
  Q 447.50 183.50 446.75 183.50
  Z"
/>
<path fill="#02303a" d="
  M 497.06 158.80
  C 501.81 150.34 508.69 144.64 519.19 146.22
  Q 521.39 146.55 523.58 147.80
  Q 524.13 148.11 524.07 148.75
  Q 523.60 154.20 523.03 161.18
  C 522.86 163.24 521.07 164.46 519.07 164.02
  C 509.52 161.94 503.49 164.10 498.84 172.92
  Q 497.72 175.06 497.73 177.36
  Q 497.77 199.01 497.75 220.69
  A 0.31 0.30 -89.0 0 1 497.45 220.99
  L 480.25 221.00
  Q 479.75 221.00 479.75 220.50
  L 479.75 147.81
  Q 479.75 147.27 480.29 147.26
  Q 486.45 147.18 491.42 147.33
  Q 495.02 147.44 495.52 151.38
  Q 495.94 154.73 496.46 158.68
  Q 496.59 159.64 497.06 158.80
  Z"
/>
<path fill="#02303a" d="
  M 572.11 212.53
  C 564.05 219.56 555.87 223.12 544.68 221.84
  Q 531.08 220.29 527.70 208.39
  Q 526.26 203.32 527.46 197.96
  C 531.05 181.90 557.39 178.71 570.41 178.76
  Q 570.93 178.76 570.96 178.24
  C 571.47 169.75 570.14 160.74 559.61 160.19
  C 553.54 159.87 548.89 161.95 543.93 165.13
  C 540.53 167.31 536.23 167.50 533.84 163.72
  Q 532.16 161.07 530.68 158.07
  Q 530.42 157.56 530.85 157.18
  Q 541.12 147.89 555.14 146.28
  Q 566.42 144.98 573.84 148.53
  C 583.76 153.28 588.39 162.90 588.45 174.36
  Q 588.55 196.72 588.49 220.41
  A 0.61 0.60 0.0 0 1 587.88 221.01
  Q 583.76 221.00 579.52 220.99
  C 574.37 220.97 573.92 216.62 572.95 212.80
  Q 572.74 211.98 572.11 212.53
  Z
  M 544.79 205.02
  C 546.10 208.40 550.25 209.68 553.61 209.72
  Q 563.71 209.86 570.65 201.91
  Q 571.00 201.51 571.00 200.97
  L 571.00 190.28
  Q 571.00 189.74 570.46 189.74
  C 562.70 189.85 539.50 191.34 544.79 205.02
  Z"
/>
<path fill="#02303a" d="
  M 735.52 187.18
  C 736.40 197.55 741.15 206.39 751.95 207.84
  Q 760.60 209.00 768.24 204.81
  C 771.56 202.99 776.37 199.38 779.57 203.77
  Q 781.76 206.77 783.88 209.34
  A 0.87 0.86 -44.2 0 1 783.86 210.47
  C 776.30 218.92 764.74 222.17 753.44 222.03
  C 729.87 221.76 717.08 204.23 717.55 181.65
  C 717.92 164.12 728.08 150.23 745.77 146.75
  C 749.37 146.04 754.53 145.88 758.18 146.44
  Q 778.97 149.60 783.98 169.90
  Q 785.46 175.87 784.86 182.75
  Q 784.53 186.52 780.73 186.52
  Q 757.52 186.48 736.14 186.50
  Q 735.46 186.50 735.52 187.18
  Z
  M 736.51 175.64
  L 768.83 175.36
  A 0.25 0.25 0.0 0 0 769.08 175.11
  L 769.08 174.96
  A 16.08 16.02 89.5 0 0 752.92 159.02
  L 752.14 159.02
  A 16.08 16.02 89.5 0 0 736.26 175.24
  L 736.26 175.39
  A 0.25 0.25 0.0 0 0 736.51 175.64
  Z"
/>
</svg>
