<svg xmlns="http://www.w3.org/2000/svg" viewBox="0 0 876 306"><path fill="#02303a" d="M211.34 113.04c3.75-3.42-1.48-9.01-5.63-5.25q-12.54 11.35-29.31 20.83-9.19 5.19-16.32.09-2.82-2.01-5.49-6.8-7.14-12.8-14.25-24.71-2.65-4.44-2.84-7.54-.55-9.22 6.78-13.17c5.63-3.02 12.47-5.65 18.79-7.78q23.94-8.09 47.68-6.1c25.75 2.16 47.49 13.93 70.06 25.22 6.63 3.32 14.38 6.66 21.59 7.09q13.5.81 21.75-11.87c3.53-5.43 4.21-13.82 1.74-19.97-5.96-14.8-22.87-20.02-36.11-10.59-1.6 1.14-3.8.97-5.23-.38-2.72-2.57-9.58-7.51-4.61-11.7q9.32-7.86 19.51-9.7c18.72-3.39 36.08 4.93 45.11 21.5q10.48 19.23 4.04 41.13c-6.63 22.57-25.58 41.39-44.46 55.45-17.79 13.25-24.9 37.46-26.37 58.97q-.34 4.95-.58 9.63a3.5 3.5 0 0 1-3.47 3.32q-9.23.08-18.3.02-3.06-.02-3.63-3.11-3.2-17.71-19.76-22.67c-7.06-2.12-15.31-.61-21.35 3.42q-10.22 6.83-12.03 19.39c-.27 1.92-2.04 3-3.88 3l-18.35-.02c-3.95 0-3.69-5.59-4.56-8.14q-4.01-11.71-15.35-16.55c-6.89-2.94-15.09-2.71-21.71.69q-12.71 6.5-14.93 21c-.26 1.73-1.87 3.03-3.59 3.02q-10.11-.03-18.68-.01-3.22.01-3.85-3.19c-8.5-43.56 2.17-89.97 39.28-116.94q.34-.24.55.12 7.56 13.03 15.7 27.09c4.47 7.72 13.18 12.39 21.91 10.92q4.15-.69 9.76-3.84 16.69-9.36 30.39-21.87M258 110.9l10.31 5.14a1.96 1.96 0 0 0 2.62-.88l.65-1.28a7.76 7.63-63.5 0 0-3.37-10.35l-.16-.08a7.76 7.63-63.5 0 0-10.29 3.54l-.64 1.29a1.96 1.96 0 0 0 .88 2.62m392.75 41.05V115q0-.5.5-.5h16.88q.62 0 .62.63v105.41q0 .44-.44.44-5.34.05-10.62 0c-5.06-.06-4.83-5.76-5.71-9.32q-.16-.66-.63-.18c-8.08 8.33-17.48 12.33-29.05 9.85-18.65-4.01-22.57-27.32-20.99-42.94 2.02-19.96 15.76-35.47 37.33-31.91q5.85.96 11.49 5.76.62.53.62-.29m-.31 13.93c-4.53-5.6-11.73-7.35-18.58-5.51-13.64 3.68-13.44 24.18-11.34 34.71 1.37 6.91 5.41 12.3 12.99 12.67q9.96.47 16.88-8.25.36-.46.36-1.04v-31.7q0-.5-.31-.88"/><rect width="18" height="106.5" x="686.25" y="114.5" fill="#02303a" rx=".41"/><path fill="#02303a" d="M446.75 183.5H434a3.25 3.25 0 0 1-3.25-3.25v-11q0-.5.5-.5h33.5q.5 0 .5.5v41.22a.97.97 0 0 1-.42.8q-13.24 9.45-29.67 10.6c-9.6.66-19.14-.16-28.17-3.44-17.45-6.32-29.19-19.98-32.54-38.54q-2.3-12.72.8-25.62c5.38-22.36 23.04-35.83 45.48-37.86 16.1-1.47 31.85 1.88 44.05 12.84q.46.42.14.95-3.32 5.48-5.66 8.78-2.52 3.56-6.81 1.54c-3.22-1.52-6.13-3.7-9.56-4.98q-7.85-2.93-16.2-2.84c-26.34.29-36.74 23.52-32.22 46.65 4.91 25.12 31.23 33.18 52.51 22.97q.52-.25.52-.83v-17.24q0-.75-.75-.75m50.31-24.7c4.75-8.46 11.63-14.16 22.13-12.58q2.2.33 4.39 1.58.55.31.49.95-.47 5.45-1.04 12.43c-.17 2.06-1.96 3.28-3.96 2.84-9.55-2.08-15.58.08-20.23 8.9q-1.12 2.14-1.11 4.44.04 21.65.02 43.33a.31.3-89 0 1-.3.3l-17.2.01q-.5 0-.5-.5v-72.69q0-.54.54-.55 6.16-.08 11.13.07 3.6.11 4.1 4.05.42 3.35.94 7.3.13.96.6.12m75.05 53.73c-8.06 7.03-16.24 10.59-27.43 9.31q-13.6-1.55-16.98-13.45-1.44-5.07-.24-10.43c3.59-16.06 29.93-19.25 42.95-19.2q.52 0 .55-.52c.51-8.49-.82-17.5-11.35-18.05-6.07-.32-10.72 1.76-15.68 4.94-3.4 2.18-7.7 2.37-10.09-1.41q-1.68-2.65-3.16-5.65-.26-.51.17-.89 10.27-9.29 24.29-10.9 11.28-1.3 18.7 2.25c9.92 4.75 14.55 14.37 14.61 25.83q.1 22.36.04 46.05a.61.6 0 0 1-.61.6l-8.36-.02c-5.15-.02-5.6-4.37-6.57-8.19q-.21-.82-.84-.27m-27.32-7.51c1.31 3.38 5.46 4.66 8.82 4.7q10.1.14 17.04-7.81.35-.4.35-.94v-10.69q0-.54-.54-.54c-7.76.11-30.96 1.6-25.67 15.28m190.73-17.84c.88 10.37 5.63 19.21 16.43 20.66q8.65 1.16 16.29-3.03c3.32-1.82 8.13-5.43 11.33-1.04q2.19 3 4.31 5.57a.87.86-44.2 0 1-.02 1.13c-7.56 8.45-19.12 11.7-30.42 11.56-23.57-.27-36.36-17.8-35.89-40.38.37-17.53 10.53-31.42 28.22-34.9 3.6-.71 8.76-.87 12.41-.31q20.79 3.16 25.8 23.46 1.48 5.97.88 12.85-.33 3.77-4.13 3.77-23.21-.04-44.59-.02-.68 0-.62.68m.99-11.54 32.32-.28a.25.25 0 0 0 .25-.25v-.15a16.08 16.02 89.5 0 0-16.16-15.94h-.78a16.08 16.02 89.5 0 0-15.88 16.22v.15a.25.25 0 0 0 .25.25"/></svg>