<svg xmlns="http://www.w3.org/2000/svg" viewBox="0 0 200 200"><path fill="#4e9a06" d="M11.41 123.11q-.14 1.3.62 2.62c2.36 4.13 8.7 5.35 13.06 4.76 7.42-1.01 10.08-7.22 10.09-13.98q.02-21.76.01-43.31 0-4.73-4.84-4.47-3.07.17-5.67 0-.4-.02-.4-.43l-.01-3.31q0-.49.49-.49l33.15.02q.4 0 .4.39l.02 3.57q0 .34-.34.33c-2.69-.09-7.87-.77-7.91 3.43q-.21 19.41.02 37.3.11 8.44-1.31 12.27c-4.1 11.11-15.34 14.3-26.34 13.15q-9.79-1.03-15.53-8.6c-5.04-6.64-3.95-19.07 5.95-21.23 4.53-.99 9.13 1.69 10.7 6.04 2.12 5.88-2.5 12.64-9.21 10.13a2.19 2.18 13.4 0 0-2.95 1.81"/><path fill="#c00" d="M77.67 76.42a2.23 2.23 0 0 0-1.78 2.2q.09 16.31-.06 32.68-.07 7.45 1.72 10.72c3.61 6.58 11.53 7.89 18.37 5.98q6.41-1.8 8.76-7.95c1.55-4.02 1.5-7.92 1.44-12.2q-.13-10.26.06-20.12c.12-5.94-1.82-12.03-8.94-11.55q-.43.03-.43-.4l.02-3.31q0-.21.2-.21h22.78q.56 0 .56.56l.02 2.91a.51.51 0 0 1-.58.51c-6.09-.89-8.54 4.39-8.6 9.54q-.14 12.06.04 23.68.11 7.64-1.04 11.48c-2.63 8.8-10.95 13.51-19.98 13.99-7.45.39-14.32-.46-20.48-4.5-5.82-3.82-7.1-9.65-7.08-16.36q.06-16.88.07-31.45c0-2.38.53-6.25-2.99-6.4q-2.75-.12-5.24-.03-.5.01-.49-.48l.03-2.86q.01-.59.6-.59h29.89q.28 0 .28.28l.04 3.46q.01.3-.29.26-3.82-.46-6.9.16"/><circle cx="161.92" cy="90.64" r="3.49" fill="#c00"/><path fill="#c00" d="m178.3 107.4-3.51.04q-.65 0-.69-.65l-.05-.99q-.03-.65.61-.75c5.47-.83 7.42-7.11 7.6-11.85a.64.63 4.5 0 1 .72-.61l.81.1a.6.6 0 0 1 .53.6l-.01 10.66q0 .64.64.64h8.41q.53 0 .52.52l-.01 1.8q-.01.53-.53.53h-8.36q-.66 0-.66.66-.03 9.01.02 18.69c.02 2.06 1.06 4 3.26 4.32 4.6.68 5.97-4.08 6.17-7.7q.04-.66.7-.66h1.04a.48.47-86.3 0 1 .47.54c-.75 6.34-2.9 11.15-9.88 11.03-4.43-.07-7.11-3.57-7.1-7.86q.02-9.19 0-18.36 0-.7-.7-.7m-52.03 2.5q4.42-6.81 12.45-5.58c4.92.76 7.05 5.61 7.06 10.08q0 6.97.04 14.58c.01 2.44 2.29 2.78 4.16 2.5a.76.76 0 0 1 .87.69l.09 1.06a.68.68 0 0 1-.68.74h-14.17q-.64 0-.61-.63l.04-1.16q.03-.66.69-.65 4.53.1 4.52-2.28-.01-6.59-.04-12.75c-.02-2.62-.24-5.97-2.52-7.62q-3.8-2.73-8.06-.21c-3.09 1.83-4.09 5.14-4.15 8.82q-.11 6.21.04 12.02.05 1.88 1.93 1.95l2.34.09q.7.03.71.73l.01.96q0 .74-.73.73h-14.28a.48.48 0 0 1-.48-.5l.06-1.47q.02-.51.53-.48 4.46.28 4.49-2.02.12-9.68.22-18.51.06-4.97-5.28-4.41-.34.04-.32-.3l.06-1.5q.01-.2.21-.21l8.8-.45q.67-.03.78.64l.83 5.05q.09.55.39.09m33.17 21.02a1.63 1.63 0 0 0 .81-1.41q0-8.45.01-19.34c0-3.09-3.49-3.66-6.03-3.33q-.22.03-.25-.19-.15-1.18.13-1.99.03-.09.13-.1l10.64-.24q.56-.01.56.55l.01 24.73a1.92 1.91-89.9 0 0 1.9 1.92l3.16.01q.48 0 .48.48l.01 1.48q0 .49-.49.49l-15.56-.01q-.53 0-.51-.53l.06-1.43a.61.6-83.4 0 1 .71-.57q2.47.49 4.23-.52"/></svg>