<svg xmlns="http://www.w3.org/2000/svg" xml:space="preserve" width="800" height="800" viewBox="0 0 512.883 512.883"><path d="M0 106.372V493.02c0 10.593 8.828 19.421 19.421 19.421h473.16c10.593 0 19.421-8.828 19.421-19.421V106.372z" style="fill:#e8edee"/><path d="M512 106.372H0V17.214C0 7.503 7.062.441 16.772.441H496.11c8.828 0 16.772 7.062 16.772 16.772v89.159z" style="fill:#546a79"/><path d="M79.448 53.407c0 15.007-11.476 26.483-26.483 26.483S26.483 68.414 26.483 53.407s11.476-26.483 26.483-26.483S79.448 38.4 79.448 53.407" style="fill:#ed7161"/><path d="M158.897 53.407c0 15.007-11.476 26.483-26.483 26.483s-26.483-11.476-26.483-26.483 11.476-26.483 26.483-26.483 26.483 11.476 26.483 26.483" style="fill:#ecba16"/><path d="M238.345 53.407c0 15.007-11.476 26.483-26.483 26.483s-26.483-11.476-26.483-26.483 11.476-26.483 26.483-26.483 26.483 11.476 26.483 26.483" style="fill:#42b05c"/><path d="M158.897 176.993H44.138c-5.297 0-8.828-3.531-8.828-8.828s3.531-8.828 8.828-8.828h114.759c5.297 0 8.828 3.531 8.828 8.828s-3.532 8.828-8.828 8.828" style="fill:#7383bf"/><path d="M282.483 176.993h-88.276c-5.297 0-8.828-3.531-8.828-8.828s3.531-8.828 8.828-8.828h88.276c5.297 0 8.828 3.531 8.828 8.828s-3.532 8.828-8.828 8.828" style="fill:#ecba16"/><path d="M335.448 176.993h-17.655c-5.297 0-8.828-3.531-8.828-8.828s3.531-8.828 8.828-8.828h17.655c5.297 0 8.828 3.531 8.828 8.828s-3.531 8.828-8.828 8.828" style="fill:#42b05c"/><path d="M379.586 212.303H247.172c-5.297 0-8.828-3.531-8.828-8.828s3.531-8.828 8.828-8.828h132.414c5.297 0 8.828 3.531 8.828 8.828s-3.531 8.828-8.828 8.828" style="fill:#7383bf"/><path d="M211.862 212.303H88.276c-5.297 0-8.828-3.531-8.828-8.828s3.531-8.828 8.828-8.828h123.586c5.297 0 8.828 3.531 8.828 8.828s-3.531 8.828-8.828 8.828m-158.896 0h-8.828c-5.297 0-8.828-3.531-8.828-8.828s3.531-8.828 8.828-8.828h8.828c5.297 0 8.828 3.531 8.828 8.828s-3.532 8.828-8.828 8.828" style="fill:#dd342e"/><path d="M123.586 247.614H44.138c-5.297 0-8.828-3.531-8.828-8.828s3.531-8.828 8.828-8.828h79.448c5.297 0 8.828 3.531 8.828 8.828s-3.531 8.828-8.828 8.828" style="fill:#7383bf"/><path d="M176.552 247.614h-17.655c-5.297 0-8.828-3.531-8.828-8.828s3.531-8.828 8.828-8.828h17.655c5.297 0 8.828 3.531 8.828 8.828s-3.532 8.828-8.828 8.828" style="fill:#ecba16"/><path d="M335.448 247.614H211.862c-5.297 0-8.828-3.531-8.828-8.828s3.531-8.828 8.828-8.828h123.586c5.297 0 8.828 3.531 8.828 8.828s-3.531 8.828-8.828 8.828" style="fill:#42b05c"/><path d="M158.897 282.924H44.138c-5.297 0-8.828-3.531-8.828-8.828 0-5.297 3.531-8.828 8.828-8.828h114.759c5.297 0 8.828 3.531 8.828 8.828-.001 5.297-3.532 8.828-8.828 8.828" style="fill:#dd342e"/><path d="M282.483 282.924h-88.276c-5.297 0-8.828-3.531-8.828-8.828 0-5.297 3.531-8.828 8.828-8.828h88.276c5.297 0 8.828 3.531 8.828 8.828-.001 5.297-3.532 8.828-8.828 8.828" style="fill:#7383bf"/><path d="M282.483 318.234h-35.31c-5.297 0-8.828-3.531-8.828-8.828 0-5.297 3.531-8.828 8.828-8.828h35.31c5.297 0 8.828 3.531 8.828 8.828-.001 5.297-3.532 8.828-8.828 8.828" style="fill:#ecba16"/><path d="M211.862 318.234H88.276c-5.297 0-8.828-3.531-8.828-8.828 0-5.297 3.531-8.828 8.828-8.828h123.586c5.297 0 8.828 3.531 8.828 8.828 0 5.297-3.531 8.828-8.828 8.828" style="fill:#42b05c"/><path d="M52.966 318.234h-8.828c-5.297 0-8.828-3.531-8.828-8.828 0-5.297 3.531-8.828 8.828-8.828h8.828c5.297 0 8.828 3.531 8.828 8.828-.001 5.297-3.532 8.828-8.828 8.828" style="fill:#ecba16"/><path d="M123.586 353.545H44.138c-5.297 0-8.828-3.531-8.828-8.828s3.531-8.828 8.828-8.828h79.448c5.297 0 8.828 3.531 8.828 8.828s-3.531 8.828-8.828 8.828" style="fill:#dd342e"/><path d="M176.552 353.545h-17.655c-5.297 0-8.828-3.531-8.828-8.828s3.531-8.828 8.828-8.828h17.655c5.297 0 8.828 3.531 8.828 8.828s-3.532 8.828-8.828 8.828" style="fill:#ecba16"/><path d="M273.655 353.545h-61.793c-5.297 0-8.828-3.531-8.828-8.828s3.531-8.828 8.828-8.828h61.793c5.297 0 8.828 3.531 8.828 8.828s-3.531 8.828-8.828 8.828" style="fill:#7383bf"/><path d="M158.897 388.855H44.138c-5.297 0-8.828-3.531-8.828-8.828s3.531-8.828 8.828-8.828h114.759c5.297 0 8.828 3.531 8.828 8.828s-3.532 8.828-8.828 8.828" style="fill:#42b05c"/><path d="M238.345 388.855h-44.138c-5.297 0-8.828-3.531-8.828-8.828s3.531-8.828 8.828-8.828h44.138c5.297 0 8.828 3.531 8.828 8.828s-3.532 8.828-8.828 8.828" style="fill:#ecba16"/><path d="M211.862 424.166H88.276c-5.297 0-8.828-3.531-8.828-8.828s3.531-8.828 8.828-8.828h123.586c5.297 0 8.828 3.531 8.828 8.828s-3.531 8.828-8.828 8.828" style="fill:#dd342e"/><path d="M52.966 424.166h-8.828c-5.297 0-8.828-3.531-8.828-8.828s3.531-8.828 8.828-8.828h8.828c5.297 0 8.828 3.531 8.828 8.828s-3.532 8.828-8.828 8.828" style="fill:#7383bf"/><path d="M123.586 459.476H44.138c-5.297 0-8.828-3.531-8.828-8.828s3.531-8.828 8.828-8.828h79.448c5.297 0 8.828 3.531 8.828 8.828s-3.531 8.828-8.828 8.828" style="fill:#42b05c"/><path d="M176.552 459.476h-17.655c-5.297 0-8.828-3.531-8.828-8.828s3.531-8.828 8.828-8.828h17.655c5.297 0 8.828 3.531 8.828 8.828s-3.532 8.828-8.828 8.828" style="fill:#ecba16"/><path d="M256 459.476h-44.138c-5.297 0-8.828-3.531-8.828-8.828s3.531-8.828 8.828-8.828H256c5.297 0 8.828 3.531 8.828 8.828s-3.531 8.828-8.828 8.828" style="fill:#7383bf"/></svg>