<svg xmlns="http://www.w3.org/2000/svg" width="800" height="800" viewBox="0 0 32 32"><path d="M30.026 15.139a3.818 3.818 0 0 0-1.646.244l.026-.009c-.125.05-.325.05-.342.209.069.066.079.175.137.267.117.198.261.366.429.506l.003.003c.175.137.35.27.534.387.325.2.694.319 1.012.52.181.117.366.266.55.391.091.062.15.175.267.215v-.025c-.057-.075-.075-.184-.131-.267-.084-.084-.167-.159-.25-.241a4.058 4.058 0 0 0-.857-.835l-.012-.008c-.267-.182-.852-.437-.962-.744l-.016-.018c.218-.031.412-.077.599-.139l-.024.007c.284-.075.544-.059.837-.132.132-.034.266-.075.4-.117v-.075c-.15-.15-.262-.354-.417-.494-.409-.36-.86-.698-1.335-1.002l-.045-.027c-.262-.167-.595-.275-.871-.417-.1-.05-.267-.075-.325-.159a3.153 3.153 0 0 1-.336-.621l-.008-.022q-.368-.714-.684-1.453a8.381 8.381 0 0 0-.448-1.001l.023.047a8.491 8.491 0 0 0-3.188-3.102l-.043-.022a3.93 3.93 0 0 0-1.045-.339l-.025-.004c-.209-.01-.417-.025-.625-.034a3.02 3.02 0 0 1-.39-.296l.003.003c-.475-.3-1.704-.95-2.054-.09-.225.542.334 1.077.527 1.352.154.183.294.388.415.605l.01.02c.059.145.075.294.134.445.145.452.292.823.459 1.182l-.026-.062c.099.199.202.368.317.528l-.008-.012c.067.091.182.134.209.284a2.352 2.352 0 0 0-.19.61l-.002.014a3.636 3.636 0 0 0-.171 1.112c0 .621.153 1.206.423 1.72l-.01-.02c.134.207.452.667.878.491.375-.15.292-.625.4-1.043.025-.1.009-.166.06-.234v.019c.117.235.235.459.342.694.302.435.661.805 1.071 1.11l.013.009c.2.15.359.41.609.502v-.025h-.019a1.091 1.091 0 0 0-.189-.164l-.004-.002a4.327 4.327 0 0 1-.429-.489l-.008-.011c-.326-.44-.636-.938-.905-1.461l-.029-.061c-.137-.262-.252-.545-.362-.804-.05-.1-.05-.25-.134-.3a3.094 3.094 0 0 0-.392.55l-.008.016a4.601 4.601 0 0 0-.234 1.251v.011c-.034.009-.017 0-.034.018-.267-.065-.359-.342-.459-.575a3.568 3.568 0 0 1-.215-1.231c0-.356.051-.7.147-1.025l-.006.026c.059-.175.309-.727.209-.895-.052-.159-.217-.25-.309-.379a3.078 3.078 0 0 1-.292-.514l-.008-.02c-.2-.467-.3-.985-.517-1.452a4.34 4.34 0 0 0-.424-.65l.007.009a4.236 4.236 0 0 1-.449-.63l-.011-.02c-.041-.091-.1-.242-.034-.342a.142.142 0 0 1 .117-.112h.001c.11-.09.419.027.527.077.317.12.59.261.843.427l-.016-.01c.117.082.244.241.394.282h.175c.267.059.569.018.819.091.459.155.856.349 1.223.587l-.021-.013a7.497 7.497 0 0 1 2.586 2.816l.02.041c.1.192.144.369.235.569.175.412.391.829.569 1.227.169.428.369.798.607 1.139l-.012-.018c.125.175.627.266.852.357.237.083.427.162.611.251l-.037-.016c.287.175.567.375.837.567.137.095.554.304.579.472zm-11.724 7.313.001.049c0 .558-.249 1.057-.643 1.393l-.003.002a2.522 2.522 0 0 1-1.736.562h.006a3.448 3.448 0 0 1-1.976-.651l.01.007.296-.595c.429.24.939.389 1.481.41h.006a1.556 1.556 0 0 0 .984-.278l-.005.003a.941.941 0 0 0 .375-.752v-.017.001c0-.412-.287-.762-.81-1.056-.485-.266-1.453-.821-1.453-.821a1.655 1.655 0 0 1-.791-1.411l.001-.063v.003l-.001-.063c0-.515.227-.977.586-1.291l.002-.002a2.2 2.2 0 0 1 1.529-.519h-.005.031a3.12 3.12 0 0 1 1.73.52l-.012-.007-.266.595a3.337 3.337 0 0 0-1.327-.287h-.002a1.17 1.17 0 0 0-.819.259l.002-.002a.853.853 0 0 0-.31.655c0 .41.292.762.832 1.062.491.269 1.483.837 1.483.837.488.287.811.809.811 1.407l-.001.055v-.003zm2.072.531a4.181 4.181 0 0 1-.42-2.183l-.001.014q0-2.611 1.587-2.612a1.335 1.335 0 0 1 1.218.619l.003.005a4.173 4.173 0 0 1 .419 2.167l.001-.014q0 2.632-1.587 2.634a1.336 1.336 0 0 1-1.219-.619l-.003-.005zm4.114 1.552-1.27-.625c.116-.097.22-.199.316-.309l.003-.003a4.201 4.201 0 0 0 .809-2.829l.001.014q0-3.43-2.693-3.432a2.553 2.553 0 0 0-2.059.869l-.002.003a4.21 4.21 0 0 0-.806 2.819l-.001-.014a4.08 4.08 0 0 0 .726 2.687l-.009-.013a2.45 2.45 0 0 0 1.986.768l-.009.001h.032c.311 0 .612-.045.897-.128l-.022.006 1.656.965.45-.777zm4.148-.169h-3.287v-6.91h1.106v6.061h2.181zm-15.401-5.098a15.605 15.605 0 0 1-1.905 5.65l.04-.077a2.489 2.489 0 0 1-1.968 1.34l-.01.001a1.96 1.96 0 0 1-.719-.177l.012.005v-.617c.137.021.295.033.456.033h.028-.001a1.16 1.16 0 0 0 .81-.279l-.002.001c.22-.181.361-.451.369-.755v-.001a5.031 5.031 0 0 0-.299-1.214l.012.034-1.267-3.944h1.137l.909 2.949c.162.416.256.898.256 1.401v.002a18.35 18.35 0 0 0 1.034-4.261l.009-.092zm-5.02 5.098H7.057q-.049-2.761-.337-5.511h-.01l-1.762 5.511h-.881l-1.75-5.511h-.012q-.205 2.751-.244 5.511H1.005q.103-3.685.512-6.911h1.437l1.668 5.079h.01l1.683-5.079h1.368q.454 3.777.535 6.911zm13.29-16.487h-.008c-.119 0-.234.015-.344.043l.01-.002v.016h.017c.086.128.174.239.269.343l-.002-.002c.067.134.125.267.192.4l.017-.019a.465.465 0 0 0 .175-.419v.002c-.05-.059-.057-.117-.1-.175-.05-.084-.157-.125-.225-.191z"/></svg>