<svg xmlns="http://www.w3.org/2000/svg" viewBox="0 0 572 436"><path fill="#090" d="M202.4 108.92a.4.4 0 0 0-.51.38q-.11 76.23.06 154 .01 7.12-1.35 11.23-5.14 15.49-20.68 20.49c-15.55 5-32.65-4.82-37.34-20.07q-1.43-4.64-1.41-13.14.28-104.24-.02-221.79-.03-9.68 1.42-14.29c3.24-10.27 11.04-17.46 21.53-20.33q10.57-2.89 21.85 2.64 3.36 1.64 11.61 9.9 87.55 87.55 173.81 173.93a.61.6-67.5 0 0 1.03-.43q.1-75.86-.03-143.94c-.02-13-1.08-24.07 8.72-33.92 15.95-16.04 43.63-10.06 50.48 12.18q1.45 4.71 1.46 14.34.02 119.02-.12 225.27c0 2.25-.01 4.49-.52 6.74-4.46 19.65-26.22 30.48-44.3 20.39q-4.13-2.31-10.89-9.08-85.78-85.93-173.77-173.9-.45-.45-1.03-.6M101.46 387.33q.42-.91.42-1.82.07-51.08-.05-57.4-.08-3.74.88-6.72c2.28-7.06 10.64-9.91 16.98-6.32q6.15 3.48 6.16 11.07.05 41.69.01 89.54-.01 11.38-10.18 13.6c-5.01 1.09-9.27-2.22-12.61-5.58q-33.79-33.98-67.83-67.84-.32-.32-.74-.16a.8.8 0 0 0-.53.75q-.04 29.62.03 59.91c.04 17.3-24.01 16.71-24.01.23q0-44.97-.01-90.29 0-3.73 1.46-6.4c3.94-7.24 13.43-8.76 19.19-2.99q36.11 36.2 70.4 70.5a.27.27 0 0 0 .43-.08m127.48 3.4q.22-.44-.28-.43-14.17.2-27.69.28c-4.49.03-8.43-1.6-11.12-5.04-6.23-7.95.33-18.95 9.84-19.02q32.44-.23 67.38-.26a.53.53 0 0 1 .47.77l-30.42 61.5q-.26.53-.85.53l-65.54-.01a1.65 1.64-14.7 0 1-1.43-.83l-31.26-55.17a1.77 1.76-45.5 0 1-.01-1.73l31.39-57.21a1.24 1.24 0 0 1 1.09-.65h68.27a1.34 1.32-12.7 0 1 1.2.75q1.64 3.37 2.95 6.4 7.32 16.91 14.78 35.49a.51.51 0 0 1-.48.7l-22.26.05a1.79 1.78 76.9 0 1-1.6-1l-8.39-17.37a1.68 1.67 77 0 0-1.51-.95l-38.22.02a2.13 2.11-75.3 0 0-1.85 1.09l-17.57 31.92a2.7 2.68-45.6 0 0 .02 2.62l17.74 31.09a1.11 1.11 0 0 0 .96.55l36.86-.02q.5 0 .72-.44zm51.95-33.61a1.08 1.08 0 0 1-1.08-1.08V326.3a12.88 12.1-90 0 1 12.1-12.88 12.88 12.1 90 0 1 12.1 12.88v29.74a1.08 1.08 0 0 1-1.08 1.08zm243.24 14.93q19.05 18.91 36.48 36.44 4.54 4.57 3.73 10.42c-.77 5.55-5.23 9.77-10.94 10.32q-5.5.53-9.88-3.85-18.2-18.18-36.53-36.3a.76.76 0 0 0-1.07-.01q-16.4 16.13-34.29 34.21-4.12 4.16-6.94 5.24c-7.39 2.82-15.29-2.19-16.1-10.05q-.59-5.78 4.12-10.5 16.65-16.68 35.99-35.7a1.06 1.06 0 0 0 0-1.5q-18.16-18.22-34.75-34.59-2.16-2.14-3.62-4.23c-3.5-5.03-1.97-12.09 2.74-15.82 5.58-4.42 12.14-3.03 16.9 1.74q17.64 17.66 35.93 36.02a.8.8 0 0 0 1.13.01q17.5-17.37 35.19-35.17c3.38-3.4 6.81-5.64 11.74-5.07 10.34 1.21 13.93 13.51 6.83 20.63q-16.25 16.32-36.66 36.66a.78.78 0 0 0 0 1.1M410.24 356.2a.65.65 0 0 0-1.11-.46q-35.63 35.55-69.51 69.7-5.71 5.75-13.12 3.49c-4.71-1.44-8.21-6.56-8.15-11.27q.33-27.88-.06-56.98-.23-17.41.26-35.8.16-6.08 5.82-9.5c6.38-3.86 15.4-.64 17.3 6.63q.69 2.65.7 8.05.03 28.43-.02 56.85a.91.9 17.5 0 0 .39.74q.28.19.51-.04 33.54-33.42 68.04-68.09 4.16-4.18 6.75-5.1c8.14-2.88 16.12 3 16.14 11.69q.15 46.03-.02 91.54c-.06 15.86-23.89 15.89-23.91-.68q-.05-31.02-.01-60.77m-107.17 10.35a.94.94 0 0 1 .94.94v48.91a12.71 11.91 90 0 1-11.91 12.71h-.34a12.71 11.91-90 0 1-11.91-12.71v-48.91a.94.94 0 0 1 .94-.94z"/></svg>