<svg xmlns="http://www.w3.org/2000/svg" xml:space="preserve" width="800" height="800" viewBox="0 0 512 512"><path d="M494.345 512H17.655C7.901 512 0 504.099 0 494.345V105.931h512v388.414c0 9.754-7.901 17.655-17.655 17.655" style="fill:#e8edee"/><path d="M512 105.931H0V17.655C0 7.901 7.901 0 17.655 0h476.69C504.099 0 512 7.901 512 17.655z" style="fill:#546a79"/><path d="M88.276 52.966c0-14.627-11.855-26.483-26.483-26.483S35.31 38.338 35.31 52.966s11.855 26.483 26.483 26.483 26.483-11.856 26.483-26.483" style="fill:#ed7161"/><path d="M176.552 52.966c0-14.627-11.855-26.483-26.483-26.483s-26.483 11.855-26.483 26.483 11.855 26.483 26.483 26.483 26.483-11.856 26.483-26.483" style="fill:#ecba16"/><path d="M264.828 52.966c0-14.627-11.855-26.483-26.483-26.483-14.627 0-26.483 11.855-26.483 26.483s11.855 26.483 26.483 26.483c14.627-.001 26.483-11.856 26.483-26.483M123.586 158.897h-70.62a8.826 8.826 0 0 1-8.828-8.828 8.826 8.826 0 0 1 8.828-8.828h70.621a8.826 8.826 0 0 1 8.828 8.828 8.827 8.827 0 0 1-8.829 8.828" style="fill:#42b05c"/><path d="M123.586 264.828h-70.62c-4.882 0-8.828-3.955-8.828-8.828s3.946-8.828 8.828-8.828h70.621c4.882 0 8.828 3.955 8.828 8.828s-3.947 8.828-8.829 8.828" style="fill:#ecba16"/><path d="M203.034 211.862H79.448a8.826 8.826 0 0 1-8.828-8.828 8.826 8.826 0 0 1 8.828-8.828h123.586a8.826 8.826 0 0 1 8.828 8.828 8.826 8.826 0 0 1-8.828 8.828" style="fill:#dd342e"/><path d="M203.034 317.793H52.966c-4.882 0-8.828-3.955-8.828-8.828s3.946-8.828 8.828-8.828h150.069c4.882 0 8.828 3.955 8.828 8.828s-3.947 8.828-8.829 8.828" style="fill:#7383bf"/><path d="M176.552 370.759H79.448c-4.882 0-8.828-3.955-8.828-8.828s3.946-8.828 8.828-8.828h97.103c4.882 0 8.828 3.955 8.828 8.828s-3.946 8.828-8.827 8.828" style="fill:#ecba16"/><path d="M176.552 476.69H79.448c-4.882 0-8.828-3.955-8.828-8.828s3.946-8.828 8.828-8.828h97.103c4.882 0 8.828 3.955 8.828 8.828s-3.946 8.828-8.827 8.828" style="fill:#7383bf"/><path d="M229.517 423.724H105.931c-4.882 0-8.828-3.955-8.828-8.828s3.946-8.828 8.828-8.828h123.586c4.882 0 8.828 3.955 8.828 8.828s-3.946 8.828-8.828 8.828" style="fill:#42b05c"/></svg>