<?xml version="1.0" encoding="UTF-8" standalone="no"?>
<!DOCTYPE svg PUBLIC "-//W3C//DTD SVG 1.1//EN" "http://www.w3.org/Graphics/SVG/1.1/DTD/svg11.dtd">
<svg xmlns="http://www.w3.org/2000/svg" version="1.1" viewBox="0.00 0.00 200.00 200.00">
<path fill="#4e9a06" d="
  M 11.41 123.11
  Q 11.27 124.41 12.03 125.73
  C 14.39 129.86 20.73 131.08 25.09 130.49
  C 32.51 129.48 35.17 123.27 35.18 116.51
  Q 35.20 94.75 35.19 73.20
  Q 35.19 68.47 30.35 68.73
  Q 27.28 68.90 24.68 68.73
  Q 24.28 68.71 24.28 68.30
  L 24.27 64.99
  Q 24.27 64.50 24.76 64.50
  L 57.91 64.52
  Q 58.31 64.52 58.31 64.91
  L 58.33 68.48
  Q 58.33 68.82 57.99 68.81
  C 55.30 68.72 50.12 68.04 50.08 72.24
  Q 49.87 91.65 50.10 109.54
  Q 50.21 117.98 48.79 121.81
  C 44.69 132.92 33.45 136.11 22.45 134.96
  Q 12.66 133.93 6.92 126.36
  C 1.88 119.72 2.97 107.29 12.87 105.13
  C 17.40 104.14 22.00 106.82 23.57 111.17
  C 25.69 117.05 21.07 123.81 14.36 121.30
  A 2.19 2.18 13.4 0 0 11.41 123.11
  Z"
/>
<path fill="#cc0000" d="
  M 77.67 76.42
  A 2.23 2.23 0.0 0 0 75.89 78.62
  Q 75.98 94.93 75.83 111.30
  Q 75.76 118.75 77.55 122.02
  C 81.16 128.60 89.08 129.91 95.92 128.00
  Q 102.33 126.20 104.68 120.05
  C 106.23 116.03 106.18 112.13 106.12 107.85
  Q 105.99 97.59 106.18 87.73
  C 106.30 81.79 104.36 75.70 97.24 76.18
  Q 96.81 76.21 96.81 75.78
  L 96.83 72.47
  Q 96.83 72.26 97.03 72.26
  L 119.81 72.26
  Q 120.37 72.26 120.37 72.82
  L 120.39 75.73
  A 0.51 0.51 0.0 0 1 119.81 76.24
  C 113.72 75.35 111.27 80.63 111.21 85.78
  Q 111.07 97.84 111.25 109.46
  Q 111.36 117.10 110.21 120.94
  C 107.58 129.74 99.26 134.45 90.23 134.93
  C 82.78 135.32 75.91 134.47 69.75 130.43
  C 63.93 126.61 62.65 120.78 62.67 114.07
  Q 62.73 97.19 62.74 82.62
  C 62.74 80.24 63.27 76.37 59.75 76.22
  Q 57.00 76.10 54.51 76.19
  Q 54.01 76.20 54.02 75.71
  L 54.05 72.85
  Q 54.06 72.26 54.65 72.26
  L 84.54 72.26
  Q 84.82 72.26 84.82 72.54
  L 84.86 76.00
  Q 84.87 76.30 84.57 76.26
  Q 80.75 75.80 77.67 76.42
  Z"
/>
<circle fill="#cc0000" cx="161.92" cy="90.64" r="3.49"/>
<path fill="#cc0000" d="
  M 178.30 107.40
  L 174.79 107.44
  Q 174.14 107.44 174.10 106.79
  L 174.05 105.80
  Q 174.02 105.15 174.66 105.05
  C 180.13 104.22 182.08 97.94 182.26 93.20
  A 0.64 0.63 4.5 0 1 182.98 92.59
  L 183.79 92.69
  A 0.60 0.60 0.0 0 1 184.32 93.29
  L 184.31 103.95
  Q 184.31 104.59 184.95 104.59
  L 193.36 104.59
  Q 193.89 104.59 193.88 105.11
  L 193.87 106.91
  Q 193.86 107.44 193.34 107.44
  L 184.98 107.44
  Q 184.32 107.44 184.32 108.10
  Q 184.29 117.11 184.34 126.79
  C 184.36 128.85 185.40 130.79 187.60 131.11
  C 192.20 131.79 193.57 127.03 193.77 123.41
  Q 193.81 122.75 194.47 122.75
  L 195.51 122.75
  A 0.48 0.47 -86.3 0 1 195.98 123.29
  C 195.23 129.63 193.08 134.44 186.10 134.32
  C 181.67 134.25 178.99 130.75 179.00 126.46
  Q 179.02 117.27 179.00 108.10
  Q 179.00 107.40 178.30 107.40
  Z"
/>
<path fill="#cc0000" d="
  M 126.27 109.90
  Q 130.69 103.09 138.72 104.32
  C 143.64 105.08 145.77 109.93 145.78 114.40
  Q 145.78 121.37 145.82 128.98
  C 145.83 131.42 148.11 131.76 149.98 131.48
  A 0.76 0.76 0.0 0 1 150.85 132.17
  L 150.94 133.23
  A 0.68 0.68 0.0 0 1 150.26 133.97
  L 136.09 133.97
  Q 135.45 133.97 135.48 133.34
  L 135.52 132.18
  Q 135.55 131.52 136.21 131.53
  Q 140.74 131.63 140.73 129.25
  Q 140.72 122.66 140.69 116.50
  C 140.67 113.88 140.45 110.53 138.17 108.88
  Q 134.37 106.15 130.11 108.67
  C 127.02 110.50 126.02 113.81 125.96 117.49
  Q 125.85 123.70 126.00 129.51
  Q 126.05 131.39 127.93 131.46
  L 130.27 131.55
  Q 130.97 131.58 130.98 132.28
  L 130.99 133.24
  Q 130.99 133.98 130.26 133.97
  L 115.98 133.97
  A 0.48 0.48 0.0 0 1 115.50 133.47
  L 115.56 132.00
  Q 115.58 131.49 116.09 131.52
  Q 120.55 131.80 120.58 129.50
  Q 120.70 119.82 120.80 110.99
  Q 120.86 106.02 115.52 106.58
  Q 115.18 106.62 115.20 106.28
  L 115.26 104.78
  Q 115.27 104.58 115.47 104.57
  L 124.27 104.12
  Q 124.94 104.09 125.05 104.76
  L 125.88 109.81
  Q 125.97 110.36 126.27 109.90
  Z"
/>
<path fill="#cc0000" d="
  M 159.44 130.92
  A 1.63 1.63 0.0 0 0 160.25 129.51
  Q 160.25 121.06 160.26 110.17
  C 160.26 107.08 156.77 106.51 154.23 106.84
  Q 154.01 106.87 153.98 106.65
  Q 153.83 105.47 154.11 104.66
  Q 154.14 104.57 154.24 104.56
  L 164.88 104.32
  Q 165.44 104.31 165.44 104.87
  L 165.45 129.60
  A 1.92 1.91 -89.9 0 0 167.35 131.52
  L 170.51 131.53
  Q 170.99 131.53 170.99 132.01
  L 171.00 133.49
  Q 171.00 133.98 170.51 133.98
  L 154.95 133.97
  Q 154.42 133.97 154.44 133.44
  L 154.50 132.01
  A 0.61 0.60 -83.4 0 1 155.21 131.44
  Q 157.68 131.93 159.44 130.92
  Z"
/>
</svg>
