<?xml version="1.0" encoding="UTF-8" standalone="no"?>
<!DOCTYPE svg PUBLIC "-//W3C//DTD SVG 1.1//EN" "http://www.w3.org/Graphics/SVG/1.1/DTD/svg11.dtd">
<svg xmlns="http://www.w3.org/2000/svg" version="1.1" viewBox="0.00 0.00 572.00 436.00">
<path fill="#009900" d="
  M 202.40 108.92
  A 0.40 0.40 0.0 0 0 201.89 109.30
  Q 201.78 185.53 201.95 263.30
  Q 201.96 270.42 200.60 274.53
  Q 195.46 290.02 179.92 295.02
  C 164.37 300.02 147.27 290.20 142.58 274.95
  Q 141.15 270.31 141.17 261.81
  Q 141.45 157.57 141.15 40.02
  Q 141.12 30.34 142.57 25.73
  C 145.81 15.46 153.61 8.27 164.10 5.40
  Q 174.67 2.51 185.95 8.04
  Q 189.31 9.68 197.56 17.94
  Q 285.11 105.49 371.37 191.87
  A 0.61 0.60 -67.5 0 0 372.40 191.44
  Q 372.50 115.58 372.37 47.50
  C 372.35 34.50 371.29 23.43 381.09 13.58
  C 397.04 -2.46 424.72 3.52 431.57 25.76
  Q 433.02 30.47 433.03 40.10
  Q 433.05 159.12 432.91 265.37
  C 432.91 267.62 432.90 269.86 432.39 272.11
  C 427.93 291.76 406.17 302.59 388.09 292.50
  Q 383.96 290.19 377.20 283.42
  Q 291.42 197.49 203.43 109.52
  Q 202.98 109.07 202.40 108.92
  Z"
/>
<path fill="#009900" d="
  M 101.46 387.33
  Q 101.88 386.42 101.88 385.51
  Q 101.95 334.43 101.83 328.11
  Q 101.75 324.37 102.71 321.39
  C 104.99 314.33 113.35 311.48 119.69 315.07
  Q 125.84 318.55 125.85 326.14
  Q 125.90 367.83 125.86 415.68
  Q 125.85 427.06 115.68 429.28
  C 110.67 430.37 106.41 427.06 103.07 423.70
  Q 69.28 389.72 35.24 355.86
  Q 34.92 355.54 34.50 355.70
  A 0.80 0.80 0.0 0 0 33.97 356.45
  Q 33.93 386.07 34.00 416.36
  C 34.04 433.66 9.99 433.07 9.99 416.59
  Q 9.99 371.62 9.98 326.30
  Q 9.98 322.57 11.44 319.90
  C 15.38 312.66 24.87 311.14 30.63 316.91
  Q 66.74 353.11 101.03 387.41
  A 0.27 0.27 0.0 0 0 101.46 387.33
  Z"
/>
<path fill="#009900" d="
  M 228.94 390.73
  Q 229.16 390.29 228.66 390.30
  Q 214.49 390.50 200.97 390.58
  C 196.48 390.61 192.54 388.98 189.85 385.54
  C 183.62 377.59 190.18 366.59 199.69 366.52
  Q 232.13 366.29 267.07 366.26
  A 0.53 0.53 0.0 0 1 267.54 367.03
  L 237.12 428.53
  Q 236.86 429.06 236.27 429.06
  L 170.73 429.05
  A 1.65 1.64 -14.7 0 1 169.30 428.22
  L 138.04 373.05
  A 1.77 1.76 -45.5 0 1 138.03 371.32
  L 169.42 314.11
  A 1.24 1.24 0.0 0 1 170.51 313.46
  L 238.78 313.46
  A 1.34 1.32 -12.7 0 1 239.98 314.21
  Q 241.62 317.58 242.93 320.61
  Q 250.25 337.52 257.71 356.10
  A 0.51 0.51 0.0 0 1 257.23 356.80
  L 234.97 356.85
  A 1.79 1.78 76.9 0 1 233.37 355.85
  L 224.98 338.48
  A 1.68 1.67 77.0 0 0 223.47 337.53
  L 185.25 337.55
  A 2.13 2.11 -75.3 0 0 183.40 338.64
  L 165.83 370.56
  A 2.70 2.68 -45.6 0 0 165.85 373.18
  L 183.59 404.27
  A 1.11 1.11 0.0 0 0 184.55 404.82
  L 221.41 404.80
  Q 221.91 404.80 222.13 404.36
  L 228.94 390.73
  Z"
/>
<path fill="#009900" d="
  M 280.89 357.12
  A 1.08 1.08 0.0 0 1 279.81 356.04
  L 279.81 326.30
  A 12.88 12.10 -90.0 0 1 291.91 313.42
  L 291.91 313.42
  A 12.88 12.10 90.0 0 1 304.01 326.30
  L 304.01 356.04
  A 1.08 1.08 0.0 0 1 302.93 357.12
  L 280.89 357.12
  Z"
/>
<path fill="#009900" d="
  M 524.13 372.05
  Q 543.18 390.96 560.61 408.49
  Q 565.15 413.06 564.34 418.91
  C 563.57 424.46 559.11 428.68 553.40 429.23
  Q 547.90 429.76 543.52 425.38
  Q 525.32 407.20 506.99 389.08
  A 0.76 0.76 0.0 0 0 505.92 389.07
  Q 489.52 405.20 471.63 423.28
  Q 467.51 427.44 464.69 428.52
  C 457.30 431.34 449.40 426.33 448.59 418.47
  Q 448.00 412.69 452.71 407.97
  Q 469.36 391.29 488.70 372.27
  A 1.06 1.06 0.0 0 0 488.70 370.77
  Q 470.54 352.55 453.95 336.18
  Q 451.79 334.04 450.33 331.95
  C 446.83 326.92 448.36 319.86 453.07 316.13
  C 458.65 311.71 465.21 313.10 469.97 317.87
  Q 487.61 335.53 505.90 353.89
  A 0.80 0.80 0.0 0 0 507.03 353.90
  Q 524.53 336.53 542.22 318.73
  C 545.60 315.33 549.03 313.09 553.96 313.66
  C 564.30 314.87 567.89 327.17 560.79 334.29
  Q 544.54 350.61 524.13 370.95
  A 0.78 0.78 0.0 0 0 524.13 372.05
  Z"
/>
<path fill="#009900" d="
  M 410.24 356.20
  A 0.65 0.65 0.0 0 0 409.13 355.74
  Q 373.50 391.29 339.62 425.44
  Q 333.91 431.19 326.50 428.93
  C 321.79 427.49 318.29 422.37 318.35 417.66
  Q 318.68 389.78 318.29 360.68
  Q 318.06 343.27 318.55 324.88
  Q 318.71 318.80 324.37 315.38
  C 330.75 311.52 339.77 314.74 341.67 322.01
  Q 342.36 324.66 342.37 330.06
  Q 342.40 358.49 342.35 386.91
  A 0.91 0.90 17.5 0 0 342.74 387.65
  Q 343.02 387.84 343.25 387.61
  Q 376.79 354.19 411.29 319.52
  Q 415.45 315.34 418.04 314.42
  C 426.18 311.54 434.16 317.42 434.18 326.11
  Q 434.33 372.14 434.16 417.65
  C 434.10 433.51 410.27 433.54 410.25 416.97
  Q 410.20 385.95 410.24 356.20
  Z"
/>
<path fill="#009900" d="
  M 303.07 366.55
  A 0.94 0.94 0.0 0 1 304.01 367.49
  L 304.01 416.40
  A 12.71 11.91 90.0 0 1 292.10 429.11
  L 291.76 429.11
  A 12.71 11.91 -90.0 0 1 279.85 416.40
  L 279.85 367.49
  A 0.94 0.94 0.0 0 1 280.79 366.55
  L 303.07 366.55
  Z"
/>
</svg>
